<?xml version="1.0" encoding="utf-8"?>
<!-- Generator: Adobe Illustrator 19.1.0, SVG Export Plug-In . SVG Version: 6.00 Build 0)  -->
<svg version="1.1" id="Layer_1" xmlns="http://www.w3.org/2000/svg" xmlns:xlink="http://www.w3.org/1999/xlink" x="0px" y="0px"
	 viewBox="0 0 150 40" enable-background="new 0 0 150 40" xml:space="preserve">
<g>
	<g>
		<g>
			<path fill="#2A7DBA" d="M20.1,0c1.4,1.4,2.7,2.7,4.1,4.1c0.7,0.7,0.7,0.8,0,1.6c-3.2,3.2-6.4,6.4-9.6,9.6c-0.8,0.8-0.8,1,0,1.7
				c2,2,3.9,3.9,5.9,5.9c0.7,0.7,0.9,0.7,1.6-0.1c0.8-0.8,0.8-1,0.1-1.6c-1.5-1.5-2.9-2.9-4.4-4.4c-0.6-0.6-0.6-0.7,0-1.3
				c2.7-2.7,5.5-5.5,8.2-8.2c0.6-0.6,0.8-0.6,1.4,0c4,4,8.1,8.1,12.1,12.1c0.6,0.6,0.6,0.7,0,1.4C33.2,27,26.9,33.3,20.7,39.5
				c-0.6,0.6-0.8,0.6-1.4,0c-3.1-3.1-6.2-6.2-9.2-9.2c-0.6-0.6-0.6-0.7,0-1.3c1.6-1.6,3.2-3.2,4.9-4.9c0.5-0.5,0.7-0.5,1.3,0
				c1.4,1.4,2.9,2.9,4.3,4.3c0.7,0.7,0.9,0.7,1.6,0c1.9-1.9,3.8-3.8,5.7-5.7c0.6-0.6,0.6-0.9,0-1.5c-2-2-4-4-5.9-5.9
				c-0.6-0.6-0.9-0.6-1.6,0.1c-0.7,0.7-0.7,0.9-0.1,1.5c1.5,1.5,2.9,2.9,4.4,4.4c0.6,0.6,0.6,0.7,0,1.4c-0.9,0.9-1.7,1.7-2.6,2.6
				c-0.4,0.5-0.8,0.5-1.2,0c-1.4-1.5-2.9-2.9-4.4-4.4c-0.7-0.7-0.9-0.7-1.6,0c-2.1,2.1-4.2,4.2-6.3,6.3c-0.6,0.6-0.8,0.6-1.4,0
				c-2.2-2.2-4.3-4.3-6.5-6.5c-0.6-0.6-0.6-0.7,0-1.4C6.8,13.1,13.1,6.8,19.4,0.5c0.2-0.2,0.3-0.3,0.5-0.5C19.9,0,20,0,20.1,0z"/>
		</g>
	</g>
	<g>
		<path fill="#2A7DBA" d="M48.4,26.1c0,0.7,0,1.7,0,2.8c0,1.1,0,2.1,0.1,3.4h0.1c0.9-1.8,2.3-4.7,3.2-6.5c0.1,0,0.5,0,0.7,0
			c0.2,2,0.5,4.5,0.7,6.6h0.1c0.5-1.1,0.9-2.2,1.3-3.2c0.3-0.8,0.9-2.3,1.1-3c0,0,0-0.1,0-0.1l-1.1,0c0-0.2,0.1-0.4,0.1-0.6
			c0.5,0,1.1,0,1.7,0c0.3,0,0.7,0,1.1,0c0,0.2-0.1,0.4-0.1,0.6l-0.6,0c-0.5,1.2-1,2.3-1.4,3.4c-0.6,1.3-1.3,2.9-1.9,4.3
			c-0.1,0-0.4,0-0.7,0c-0.3-1.9-0.6-4.2-0.8-6.3h-0.1c-1.1,2.3-2.2,4.5-3.2,6.2c-0.1,0-0.5,0-0.7,0c-0.1-1.5-0.2-3-0.3-4.5
			c-0.1-1-0.1-2.1-0.1-3.2c0,0,0,0-0.1,0l-0.7,0c0-0.2,0.1-0.4,0.1-0.6c0.4,0,0.8,0,1.2,0c0.6,0,1.2,0,1.7,0c0,0.2-0.1,0.4-0.1,0.6
			L48.4,26.1z"/>
		<path fill="#2A7DBA" d="M57.3,29.2c0.6-0.7,1.2-1,1.9-1c0.9,0,1.4,0.7,1.4,1.3c-0.1,0.4-0.3,0.9-0.7,1.1c-0.7,0.4-1.6,0.5-2.7,0.5
			c-0.1,0.3-0.2,0.7-0.2,1c0,0.6,0.3,0.9,0.9,0.9c0.5,0,1.3-0.3,2-0.7c0.1,0.2,0.1,0.3,0.2,0.5c-0.7,0.4-1.6,0.9-2.5,0.9
			c-0.7,0-1.5-0.5-1.5-1.5C56.1,31.5,56.5,30.2,57.3,29.2z M58,29.4c-0.2,0.3-0.4,0.7-0.6,1.3c0.7,0,1.3-0.1,1.8-0.3
			c0.3-0.1,0.5-0.3,0.5-0.7c0-0.4-0.2-0.8-0.7-0.8C58.6,28.8,58.2,29,58,29.4z"/>
		<path fill="#2A7DBA" d="M62.1,27.7c-0.1-0.1-0.2-0.3-0.3-0.4c0.5-0.4,0.9-0.7,0.9-1.1c0-0.3-0.2-0.4-0.5-0.5
			c0-0.5,0.4-0.9,0.7-0.9c0.3,0,0.7,0.4,0.7,0.8C63.6,26.5,62.9,27.3,62.1,27.7z"/>
		<path fill="#2A7DBA" d="M63.6,29.1c0-0.2,0-0.4-0.1-0.5c0.6-0.1,1.5-0.3,1.6-0.3c0.1,0,0.3,0.2,0.4,0.3c-0.1,1.2-0.2,3.7-0.3,4.5
			c0,0.1,0.1,0.1,0.1,0c0.3-0.3,0.7-0.7,1.2-1.4c0.6-0.8,1.2-2.1,1.2-2.7c0-0.1-0.1-0.1-0.1-0.1L66.9,29c0-0.2,0-0.4-0.1-0.5
			c0.5-0.1,1.3-0.2,1.4-0.2c0.1,0,0.4,0.3,0.4,0.4c0,0.9-0.9,2.5-1.5,3.3c-0.9,1.2-1.7,1.8-1.8,1.8c-0.2,0-0.6,0-0.9-0.1
			c0-1.2,0.1-3.8,0.2-4.7L63.6,29.1z"/>
		<path fill="#2A7DBA" d="M70.1,29.2c0.6-0.7,1.2-1,1.9-1c0.9,0,1.4,0.7,1.4,1.3c-0.1,0.4-0.3,0.9-0.7,1.1c-0.7,0.4-1.6,0.5-2.7,0.5
			c-0.1,0.3-0.2,0.7-0.2,1c0,0.6,0.3,0.9,0.9,0.9c0.5,0,1.3-0.3,2-0.7c0.1,0.2,0.1,0.3,0.2,0.5c-0.7,0.4-1.6,0.9-2.5,0.9
			c-0.7,0-1.5-0.5-1.5-1.5C68.9,31.5,69.3,30.2,70.1,29.2z M70.8,29.4c-0.2,0.3-0.4,0.7-0.6,1.3c0.7,0,1.3-0.1,1.8-0.3
			c0.3-0.1,0.5-0.3,0.5-0.7c0-0.4-0.2-0.8-0.7-0.8C71.4,28.8,71.1,29,70.8,29.4z"/>
		<path fill="#2A7DBA" d="M76.5,29.1c0-0.2,0-0.4,0-0.5c1-0.1,1.5-0.3,1.6-0.3c0.1,0,0.2,0.1,0.3,0.3c-0.1,0.4-0.2,0.7-0.3,1.3
			l0.1,0c1-1.2,1.8-1.6,2.3-1.6c0.3,0,0.6,0.2,0.8,0.6c0.1,0.1,0.1,0.2,0.1,0.4c0,0.1,0,0.4-0.1,0.7l0.1,0c0.9-1.2,1.8-1.6,2.3-1.6
			c0.2,0,0.6,0.3,0.8,0.6c0.1,0.1,0.1,0.3,0.1,0.4c0,0.5-0.4,2.1-0.9,3.8c0,0,0,0.1,0,0.1c0.2,0,0.5-0.1,0.9-0.2
			c0,0.2,0.1,0.4,0.1,0.5c-0.5,0.2-1.1,0.3-1.6,0.3c-0.1,0-0.3-0.2-0.3-0.4c0.2-0.7,0.5-1.8,0.7-2.4c0.1-0.3,0.3-1.1,0.3-1.5
			c0-0.2-0.1-0.4-0.4-0.4c-0.7,0-2,1.4-2.2,2.2c-0.2,0.7-0.4,1.6-0.6,2.4c-0.3,0-0.6,0-0.8,0c0.2-0.6,0.6-2.3,0.7-2.9
			c0.1-0.4,0.2-1.1,0.2-1.3c0-0.2-0.1-0.4-0.4-0.4c-0.7,0-2,1.4-2.2,2.2c-0.1,0.5-0.5,1.9-0.6,2.4c-0.3,0-0.6,0-0.8,0
			c0.3-1.1,0.7-3.2,1.1-4.6L76.5,29.1z"/>
		<path fill="#2A7DBA" d="M88.8,32.1c-1.2,1.3-2,1.6-2.4,1.6c-0.3-0.1-0.7-0.3-0.9-0.7c-0.1-0.1-0.1-0.3-0.1-0.5
			c0-0.5,0.1-1.2,0.4-1.9c0.4-1,1.3-2.5,2.5-2.5c0.5,0,0.9,0.2,1.2,0.6h0.1l0.3-0.7c0.2,0.1,0.5,0.1,0.7,0.2
			c-0.3,1.1-0.9,3.3-1.2,4.7c0,0,0,0.1,0.1,0.1c0.1,0,0.4-0.1,0.9-0.2c0,0.2,0.1,0.4,0.1,0.5c-0.5,0.2-1.2,0.3-1.5,0.3
			c0,0-0.3-0.2-0.3-0.3C88.6,33.2,88.7,32.7,88.8,32.1L88.8,32.1z M86.8,30.4c-0.3,0.7-0.5,1.5-0.5,2.1c0,0.4,0.2,0.6,0.4,0.6
			c0.6,0,2-1.4,2.2-2c0.1-0.2,0.3-1.1,0.4-1.5c-0.3-0.4-0.7-0.6-1.1-0.6C87.7,28.9,87.1,29.7,86.8,30.4z"/>
		<path fill="#2A7DBA" d="M94.7,32.1c-0.9,1.1-1.9,1.7-2.5,1.7c-0.3,0-0.7-0.3-0.9-0.7c-0.1-0.1-0.1-0.3-0.1-0.5
			c0-0.5,0.2-1.3,0.4-1.9c0.4-1.1,1.3-2.5,2.5-2.5c0.5,0,1,0.2,1.3,0.5h0.1c0.2-0.9,0.5-2.1,0.7-3L95,25.7c0-0.2,0-0.4,0-0.5
			c1-0.1,1.7-0.3,1.8-0.3c0.1,0,0.2,0.2,0.3,0.3c-0.2,0.9-1.6,7-1.8,7.9c0,0,0,0.1,0.1,0.1c0.1,0,0.4-0.1,0.8-0.2
			c0.1,0.2,0.1,0.4,0.1,0.5c-0.6,0.2-1.1,0.3-1.5,0.3c-0.1,0-0.3-0.2-0.4-0.3C94.5,33.2,94.6,32.8,94.7,32.1L94.7,32.1z M94.9,30.9
			c0.1-0.3,0.3-1.1,0.4-1.5c-0.3-0.3-0.7-0.5-1.1-0.5c-0.7,0-1.3,0.8-1.6,1.6c-0.3,0.6-0.4,1.4-0.4,2c0,0.4,0.2,0.6,0.5,0.6
			C93.3,33,94.7,31.5,94.9,30.9z"/>
		<path fill="#2A7DBA" d="M98.3,29.2c0.6-0.7,1.2-1,1.9-1c0.9,0,1.4,0.7,1.4,1.3c-0.1,0.4-0.3,0.9-0.7,1.1c-0.7,0.4-1.6,0.5-2.7,0.5
			c-0.1,0.3-0.2,0.7-0.2,1c0,0.6,0.3,0.9,0.9,0.9c0.5,0,1.3-0.3,2-0.7c0.1,0.2,0.1,0.3,0.2,0.5c-0.7,0.4-1.6,0.9-2.5,0.9
			c-0.7,0-1.5-0.5-1.5-1.5C97.1,31.5,97.5,30.2,98.3,29.2z M99,29.4c-0.2,0.3-0.4,0.7-0.6,1.3c0.7,0,1.3-0.1,1.8-0.3
			c0.3-0.1,0.5-0.3,0.5-0.7c0-0.4-0.2-0.8-0.7-0.8C99.6,28.8,99.2,29,99,29.4z"/>
		<path fill="#2A7DBA" d="M105.1,25.7c0-0.2,0-0.4,0-0.5c1.1-0.1,1.8-0.3,1.9-0.3c0.1,0,0.3,0.2,0.3,0.3c-0.6,2.3-1.6,6.6-1.9,7.9
			c0,0,0,0.1,0.1,0.1c0.2,0,0.6-0.1,1.1-0.2c0,0.2,0.1,0.4,0.1,0.6c-0.6,0.2-1.3,0.3-1.7,0.3c-0.1,0-0.3-0.2-0.4-0.4
			c0.3-1.3,1.4-6.1,1.8-7.7L105.1,25.7z"/>
		<path fill="#2A7DBA" d="M108.7,29.2c0.6-0.7,1.2-1,1.9-1c0.9,0,1.4,0.7,1.4,1.3c-0.1,0.4-0.3,0.9-0.7,1.1
			c-0.7,0.4-1.6,0.5-2.7,0.5c-0.1,0.3-0.2,0.7-0.2,1c0,0.6,0.3,0.9,0.9,0.9c0.5,0,1.3-0.3,2-0.7c0.1,0.2,0.1,0.3,0.2,0.5
			c-0.7,0.4-1.6,0.9-2.5,0.9c-0.7,0-1.5-0.5-1.5-1.5C107.5,31.5,107.8,30.2,108.7,29.2z M109.3,29.4c-0.2,0.3-0.4,0.7-0.6,1.3
			c0.7,0,1.3-0.1,1.8-0.3c0.3-0.1,0.5-0.3,0.5-0.7c0-0.4-0.2-0.8-0.7-0.8C109.9,28.8,109.6,29,109.3,29.4z"/>
		<path fill="#2A7DBA" d="M115.2,28.2c0.4,0,0.6,0.1,0.8,0.1c0.1,0,0.1,0,0.2,0c0.2,0,1.4,0,1.7,0c0,0.2,0,0.4,0,0.6
			c-0.4,0-0.8,0-1.3,0.1V29c0.1,0.2,0.3,0.5,0.3,0.9c0,0.5-0.2,1.1-0.5,1.6c-0.3,0.5-1,1.1-2.2,1c-0.4,0.3-0.7,0.5-0.7,0.6
			c0,0.3,0.6,0.3,1.5,0.4c0.7,0.1,1.1,0.1,1.4,0.3c0.3,0.2,0.5,0.5,0.5,0.9c0,0.9-1,1.9-3.2,1.9c-1.3,0-2.3-0.5-2.3-1.2
			c0-0.2,0.1-0.5,0.3-0.7c0.4-0.3,0.7-0.4,1.4-0.8l0-0.1c-0.4-0.1-0.6-0.4-0.6-0.8c0-0.1,0.1-0.2,1-0.8v-0.1
			c-0.5-0.3-0.8-0.7-0.8-1.5C112.8,29.6,113.7,28.2,115.2,28.2z M115,34.3c-0.4-0.1-0.8-0.1-1.1-0.1c-0.9,0.6-1.4,0.8-1.4,1.3
			c0,0.6,0.8,0.8,1.5,0.8c1.2,0,2.1-0.4,2.1-1.2C116.1,34.5,115.8,34.4,115,34.3z M114.6,32c0.7,0,1.4-0.9,1.4-2.1
			c0-0.4,0-0.6-0.2-0.9c-0.2-0.3-0.4-0.4-0.7-0.4c-0.8,0-1.4,1-1.4,2.2C113.7,31.7,114.1,32,114.6,32z"/>
		<path fill="#2A7DBA" d="M121.2,32.1c-1.2,1.3-2,1.6-2.4,1.6c-0.3-0.1-0.7-0.3-0.9-0.7c-0.1-0.1-0.1-0.3-0.1-0.5
			c0-0.5,0.2-1.2,0.4-1.9c0.4-1,1.3-2.5,2.5-2.5c0.5,0,0.9,0.2,1.2,0.6h0.1l0.3-0.7c0.2,0.1,0.5,0.1,0.7,0.2
			c-0.3,1.1-0.9,3.3-1.2,4.7c0,0,0,0.1,0.1,0.1c0.1,0,0.4-0.1,0.9-0.2c0.1,0.2,0.1,0.4,0.1,0.5c-0.5,0.2-1.2,0.3-1.5,0.3
			c0,0-0.3-0.2-0.3-0.3C121,33.2,121.1,32.7,121.2,32.1L121.2,32.1z M119.2,30.4c-0.3,0.7-0.5,1.5-0.5,2.1c0,0.4,0.2,0.6,0.4,0.6
			c0.6,0,2-1.4,2.2-2c0.1-0.2,0.3-1.1,0.4-1.5c-0.3-0.4-0.7-0.6-1.1-0.6C120,28.9,119.5,29.7,119.2,30.4z"/>
		<path fill="#2A7DBA" d="M124.2,25.7c0-0.2,0-0.4,0-0.5c1.1-0.1,1.8-0.3,1.9-0.3c0.1,0,0.3,0.2,0.3,0.3c-0.6,2.3-1.6,6.6-1.9,7.9
			c0,0,0,0.1,0,0.1c0.2,0,0.6-0.1,1.1-0.2c0,0.2,0.1,0.4,0.1,0.6c-0.6,0.2-1.3,0.3-1.8,0.3c-0.1,0-0.3-0.2-0.4-0.4
			c0.3-1.3,1.4-6.1,1.8-7.7L124.2,25.7z"/>
		<path fill="#2A7DBA" d="M130.2,29.2c0.6-0.7,1.2-1,1.9-1c0.9,0,1.4,0.7,1.4,1.3c-0.1,0.4-0.3,0.9-0.7,1.1
			c-0.7,0.4-1.6,0.5-2.7,0.5c-0.1,0.3-0.2,0.7-0.2,1c0,0.6,0.3,0.9,0.9,0.9c0.5,0,1.3-0.3,2-0.7c0.1,0.2,0.1,0.3,0.2,0.5
			c-0.7,0.4-1.6,0.9-2.5,0.9c-0.7,0-1.5-0.5-1.5-1.5C129,31.5,129.3,30.2,130.2,29.2z M130.8,29.4c-0.2,0.3-0.4,0.7-0.6,1.3
			c0.7,0,1.3-0.1,1.8-0.3c0.3-0.1,0.5-0.3,0.5-0.7c0-0.4-0.2-0.8-0.7-0.8C131.4,28.8,131.1,29,130.8,29.4z"/>
		<path fill="#2A7DBA" d="M137.2,32.1c-1.2,1.3-2,1.6-2.4,1.6c-0.3-0.1-0.7-0.3-0.9-0.7c-0.1-0.1-0.1-0.3-0.1-0.5
			c0-0.5,0.2-1.2,0.4-1.9c0.4-1,1.3-2.5,2.5-2.5c0.5,0,0.9,0.2,1.2,0.6h0.1l0.3-0.7c0.2,0.1,0.5,0.1,0.7,0.2
			c-0.3,1.1-0.9,3.3-1.2,4.7c0,0,0,0.1,0.1,0.1c0.1,0,0.4-0.1,0.9-0.2c0.1,0.2,0.1,0.4,0.1,0.5c-0.5,0.2-1.2,0.3-1.5,0.3
			c0,0-0.3-0.2-0.3-0.3C137,33.2,137.2,32.7,137.2,32.1L137.2,32.1z M135.3,30.4c-0.3,0.7-0.5,1.5-0.5,2.1c0,0.4,0.2,0.6,0.4,0.6
			c0.6,0,2-1.4,2.2-2c0.1-0.2,0.3-1.1,0.4-1.5c-0.3-0.4-0.7-0.6-1.1-0.6C136.1,28.9,135.6,29.7,135.3,30.4z"/>
		<path fill="#2A7DBA" d="M142.9,29.1c0-0.1,0-0.1-0.1-0.2c-0.1-0.1-0.4-0.2-0.7-0.2c-0.2,0-0.5,0-0.7,0.2c-0.2,0.1-0.5,0.4-0.5,0.8
			c0,0.5,0.3,0.6,0.9,0.9c0.8,0.4,1.3,0.7,1.3,1.4c0,0.6-0.3,1.1-0.9,1.4c-0.4,0.2-0.8,0.3-1.5,0.3c-0.5,0-1-0.1-1.2-0.2
			c0-0.5,0-1,0.1-1.5c0.2,0,0.4,0,0.6,0l0.1,0.9c0,0.1,0,0.1,0.1,0.1c0.2,0.1,0.4,0.2,0.8,0.2c0.3,0,0.6-0.1,0.8-0.2
			c0.3-0.2,0.4-0.4,0.4-0.8c0-0.5-0.4-0.7-0.9-1c-0.7-0.3-1.3-0.6-1.3-1.4c0-0.6,0.5-1.2,1-1.4c0.4-0.2,0.9-0.3,1.4-0.3
			c0.5,0,1,0.1,1.2,0.3c-0.1,0.5-0.1,1-0.1,1.4c-0.1,0-0.4,0-0.5,0L142.9,29.1z"/>
		<path fill="#2A7DBA" d="M144.2,29.2c0-0.2-0.1-0.4-0.1-0.5c0.8-0.2,1.5-0.5,1.5-0.5c0.1,0,0.3,0.1,0.4,0.3
			c0.2,1.6,0.3,3.5,0.5,4.8h0.1c0.4-0.6,0.7-1.1,0.9-1.6c0.4-0.8,0.9-2.1,0.9-2.7c0-0.1,0-0.1-0.1-0.1l-0.7,0.1c0-0.2,0-0.4,0-0.5
			c0.6-0.1,1.3-0.2,1.4-0.2c0.1,0,0.4,0.3,0.4,0.4c0,0.9-0.7,2.5-1.2,3.4c-0.6,1.2-1.6,2.5-2.6,3.6c-0.6,0.6-1.2,1.1-1.3,1.1
			c-0.2,0-0.6-0.4-0.7-0.6c0.5-0.3,0.9-0.5,1.3-0.8c0.4-0.3,0.8-0.7,1.1-1.1c-0.2-1-0.5-3.6-0.7-5.1L144.2,29.2z"/>
	</g>
	<path fill="#2A7DBA" d="M46.6,20.4V5.4h2.5V18H56v2.4H46.6z"/>
	<path fill="#2A7DBA" d="M63.5,17L62,20.4h-2.7l6.6-14.9h2.7l6.6,14.9h-2.7L71,17H63.5z M70,14.6l-2.7-6.2l-2.7,6.2H70z"/>
	<path fill="#2A7DBA" d="M79.6,16.2L83,5.4h2.3l3.3,10.7l3.8-10.7h2.7l-5.2,14.9h-2.5l-3.2-10.2H84l-3.2,10.2h-2.5L73.1,5.4h2.7
		L79.6,16.2z"/>
	<path fill="#2A7DBA" d="M107.3,6.7c1,0.9,1.6,2.2,1.6,4c0,1.8-0.5,3.1-1.6,4c-1.1,0.8-2.7,1.3-4.9,1.3h-2.7v4.4h-2.5V5.4h5.1
		C104.6,5.4,106.3,5.9,107.3,6.7z M105.5,12.9c0.5-0.5,0.8-1.3,0.8-2.4s-0.3-1.8-1-2.2c-0.6-0.4-1.7-0.6-3-0.6h-2.6v6h2.9
		C104.1,13.7,105,13.4,105.5,12.9z"/>
	<path fill="#2A7DBA" d="M112,17l-1.5,3.4h-2.7l6.6-14.9h2.7l6.6,14.9H121l-1.5-3.4H112z M118.5,14.6l-2.7-6.2l-2.7,6.2H118.5z"/>
	<path fill="#2A7DBA" d="M129.6,7.7v12.6h-2.5V7.7h-4.5V5.4h11.6v2.3H129.6z"/>
	<path fill="#2A7DBA" d="M136.7,20.4V5.4h2.5v6.5h7.4V5.4h2.5v14.9h-2.5v-6.1h-7.4v6.1H136.7z"/>
</g>
</svg>
